# xmcd
# 
# Track frame offsets:
#     150
#     14180
#     29680
#     44720
#     58552
#     70220
#     84640
#     100920
#     117820
#     129517
#     145617
#     160442
#     171237
#     181465
#     199907
#     210745
#     223520
#     235000
#     250227
#     263200
#     277337
#     295270
#     307820
#     319790
#     333962
#     341572
# 
# Disc length: 4735
# 
# Revision: 4
# Processed by: cddbd v1.5.1PL0 Copyright (c) Steve Scherf et al.
# Submitted via: BonkEnc v1.0beta3
# 
DISCID=98127d1a
DTITLE=Richard Germer - An de Alster, an de Elbe, an de Bill
DYEAR=1900
DGENRE=
TTITLE0=An de Alster, an de Elbe, an de Bill
TTITLE1=Einmal noch nach Bombay
TTITLE2=An de Eck von de Steenstraat
TTITLE3=Das schmeißt doch einen Seemann nicht gleich um
TTITLE4=Alt - und Neu-Hamburg
TTITLE5=Nimm mich mit Kapitän auf die Reise
TTITLE6=Ständchen an Paula
TTITLE7=Die Reise nach Helgoland
TTITLE8=Du mußt mal wieder nach St. Pauli gehn
TTITLE9=Die Story von Mary
TTITLE10=Fohr mi mal röwer
TTITLE11=Madagaskar-Song
TTITLE12=Gar nich um kümmern
TTITLE13=Seeräuber-Ballade
TTITLE14=Geh'n wir mal zu Hagenbeck
TTITLE15=Das wäre noch mal was
TTITLE16=Ja son klein büschen Windstärke 10
TTITLE17=So was Dummes
TTITLE18=Seemannsgar
TTITLE19=Hering und Makrele
TTITLE20=Am Schönsten ist's immer an Land
TTITLE21=Eine Runde Gin
TTITLE22=Die Hamburg-Hessen-Story
TTITLE23=Na, denn is ja man schön
TTITLE24=Hafenunterricht
TTITLE25=In Hamburg sagt man Tschüs
EXTD=
EXTT0=
EXTT1=
EXTT2=
EXTT3=
EXTT4=
EXTT5=
EXTT6=
EXTT7=
EXTT8=
EXTT9=
EXTT10=
EXTT11=
EXTT12=
EXTT13=
EXTT14=
EXTT15=
EXTT16=
EXTT17=
EXTT18=
EXTT19=
EXTT20=
EXTT21=
EXTT22=
EXTT23=
EXTT24=
EXTT25=
PLAYORDER=
